<svg width="211" height="211" viewBox="0 0 211 211" fill="none" xmlns="http://www.w3.org/2000/svg">
<path d="M131.079 94.6055C128.611 94.6055 126.595 92.59 126.595 90.122C126.595 87.6541 128.611 85.6385 131.079 85.6385C133.547 85.6385 135.562 87.6541 135.562 90.122C135.604 92.59 133.588 94.6055 131.079 94.6055Z" fill="#6E1E7B"/>
<path d="M105.7 103.655C103.191 103.655 101.217 101.639 101.217 99.1712C101.217 96.7033 103.232 94.6877 105.7 94.6877C108.168 94.6877 110.184 96.7033 110.184 99.1712C110.184 101.639 108.168 103.614 105.7 103.655Z" fill="#6E1E7B"/>
<path d="M80.3211 94.6055C77.8532 94.6055 75.8376 92.59 75.8376 90.122C75.8376 87.6541 77.8532 85.6385 80.3211 85.6385C82.7891 85.6385 84.8046 87.6541 84.8046 90.122C84.8046 92.59 82.7891 94.6055 80.3211 94.6055Z" fill="#6E1E7B"/>
<path d="M159.09 93.6183C159.09 115.789 145.599 134.792 126.349 142.854C125.032 143.389 123.675 143.924 122.318 144.376V111.1H131.12C132.724 111.1 133.999 109.825 133.999 108.22V99.9528C138.277 98.7188 141.362 94.77 141.362 90.122C141.362 84.4868 136.755 79.8799 131.12 79.8799C125.485 79.8799 120.878 84.4868 120.878 90.122C120.878 94.77 124.004 98.7188 128.241 99.9528V105.341H119.438C117.834 105.341 116.559 106.616 116.559 108.22V145.322C116.559 145.528 116.559 145.692 116.6 145.898C114.009 146.433 111.335 146.803 108.579 146.926V108.961C112.816 107.727 115.942 103.778 115.942 99.1301C115.942 93.4949 111.335 88.888 105.7 88.888C100.065 88.888 95.4579 93.4949 95.4579 99.1301C95.4579 103.778 98.584 107.727 102.821 108.961V146.926C100.106 146.803 97.4323 146.433 94.7998 145.898C94.8409 145.734 94.8409 145.528 94.8409 145.322V108.22C94.8409 106.616 93.5658 105.341 91.9616 105.341H83.1592V99.9528C87.3959 98.7188 90.522 94.77 90.522 90.122C90.522 84.4868 85.9151 79.8799 80.2799 79.8799C74.6036 79.8799 70.0378 84.4868 70.0378 90.122C70.0378 94.77 73.1639 98.7188 77.4006 99.9528V108.22C77.4006 109.825 78.6757 111.1 80.2799 111.1H89.0823V144.376C87.7249 143.924 86.3675 143.43 85.0513 142.854C65.8011 134.792 52.3096 115.789 52.3096 93.6183C52.3096 64.1261 76.2077 40.2279 105.7 40.2279C135.192 40.2279 159.09 64.1261 159.09 93.6183Z" fill="#F353F7"/>
<path d="M124.621 201.304C122.77 204.142 119.562 205.993 115.901 205.993H95.5402C91.8794 205.993 88.671 204.142 86.8201 201.304H124.621Z" fill="#6E1E7B"/>
<path d="M135.069 181.108C133.917 182.259 132.354 182.959 130.627 182.959C134.123 182.959 136.92 185.797 136.92 189.252C136.92 190.98 136.221 192.543 135.069 193.694C133.917 194.846 132.354 195.545 130.627 195.545H80.7735C77.2773 195.545 74.4802 192.707 74.4802 189.252C74.4802 187.524 75.1795 185.961 76.3312 184.81C77.4829 183.658 79.046 182.959 80.7735 182.959C77.2773 182.959 74.4802 180.121 74.4802 176.665C74.4802 174.938 75.1795 173.334 76.3312 172.223C77.4829 171.071 79.046 170.372 80.7735 170.372C77.2773 170.372 74.4802 167.575 74.4802 164.079C74.4802 162.351 75.1795 160.788 76.3312 159.636C77.4829 158.485 79.046 157.785 80.7735 157.785H85.0514V150.176C98.3373 155.03 113.022 155.071 126.308 150.258V157.785H130.585C134.082 157.785 136.879 160.583 136.879 164.079C136.879 165.806 136.179 167.411 135.028 168.521C133.876 169.673 132.313 170.372 130.585 170.372C134.082 170.372 136.879 173.21 136.879 176.665C136.92 178.393 136.221 179.997 135.069 181.108Z" fill="#6E1E7B"/>
<path d="M105.823 4.60687C100.887 4.60687 96.8564 8.63789 96.8564 13.5738C96.8564 17.4814 99.3655 20.7721 102.821 22.0061V27.7235C102.821 29.3277 104.096 30.6028 105.7 30.6028C107.304 30.6028 108.579 29.3277 108.579 27.7235V22.0472C112.158 20.8955 114.749 17.5226 114.749 13.5327C114.749 8.59676 110.718 4.60687 105.823 4.60687Z" fill="#6E1E7B"/>
<path d="M152.303 49.8941C153.044 49.8941 153.784 49.6061 154.319 49.0303L158.309 45.0404C159.584 45.6985 160.982 46.0276 162.34 46.0276C164.643 46.0276 166.906 45.1638 168.674 43.3951C170.361 41.7086 171.307 39.4463 171.307 37.0606C171.307 34.6749 170.361 32.4126 168.674 30.7262C166.988 29.0397 164.726 28.0937 162.34 28.0937C159.954 28.0937 157.692 29.0397 156.005 30.7262C154.319 32.4126 153.373 34.6749 153.373 37.0606C153.373 38.418 153.702 39.7343 154.237 40.9271L150.164 44.9993C149.054 46.1099 149.054 47.9608 150.164 49.0714C150.823 49.6062 151.563 49.8941 152.303 49.8941Z" fill="#6E1E7B"/>
<path d="M185.786 84.7747C181.878 84.7747 178.587 87.2838 177.353 90.739H171.636C170.032 90.739 168.757 92.0141 168.757 93.6183C168.757 95.2225 170.032 96.4976 171.636 96.4976H177.271C178.423 100.076 181.796 102.667 185.786 102.667C190.722 102.667 194.753 98.6365 194.753 93.7005C194.753 88.7646 190.722 84.7747 185.786 84.7747Z" fill="#6E1E7B"/>
<path d="M162.258 141.373C160.9 141.373 159.584 141.703 158.391 142.237L154.319 138.165C153.208 137.055 151.357 137.055 150.247 138.165C149.136 139.276 149.136 141.127 150.247 142.237L154.237 146.227C153.62 147.461 153.249 148.86 153.249 150.258C153.249 152.644 154.196 154.906 155.882 156.593C157.61 158.32 159.913 159.225 162.216 159.225C164.52 159.225 166.782 158.361 168.551 156.593C170.237 154.906 171.183 152.644 171.183 150.258C171.183 147.872 170.237 145.61 168.551 143.924C166.906 142.32 164.643 141.373 162.258 141.373Z" fill="#6E1E7B"/>
<path d="M57.0399 138.206L53.05 142.196C51.816 141.579 50.4175 141.209 49.019 141.209C46.6333 141.209 44.3709 142.155 42.6845 143.841C40.9981 145.528 40.052 147.79 40.052 150.176C40.052 152.562 40.9981 154.824 42.6845 156.51C44.4121 158.238 46.7155 159.143 49.019 159.143C51.3224 159.143 53.5847 158.279 55.3534 156.51C57.0399 154.824 57.9859 152.562 57.9859 150.176C57.9859 148.819 57.6568 147.502 57.1221 146.309L61.1943 142.237C62.3049 141.127 62.3049 139.276 61.1943 138.165C60.0014 137.096 58.1916 137.096 57.0399 138.206Z" fill="#6E1E7B"/>
<path d="M42.6434 93.6183C42.6434 92.0141 41.3683 90.739 39.7641 90.739H34.1289C32.9772 87.1605 29.6043 84.5691 25.6144 84.5691C20.6785 84.5691 16.6475 88.6001 16.6475 93.536C16.6475 98.472 20.6785 102.503 25.6144 102.503C29.522 102.503 32.8127 99.9939 34.0466 96.5387H39.7641C41.3683 96.4976 42.6434 95.2225 42.6434 93.6183Z" fill="#6E1E7B"/>
<path d="M57.1223 40.9683C57.7392 39.7343 58.1094 38.3358 58.1094 36.9373C58.1094 34.5516 57.1634 32.2893 55.4769 30.6028C53.7905 28.9164 51.5282 27.9703 49.1425 27.9703C46.7568 27.9703 44.4945 28.9164 42.808 30.6028C41.1216 32.2893 40.1755 34.5516 40.1755 36.9373C40.1755 39.323 41.1216 41.5853 42.808 43.2717C44.4945 44.9582 46.7568 45.9042 49.1425 45.9042C50.4999 45.9042 51.8161 45.5752 53.009 45.0405L57.0811 49.1126C57.657 49.6885 58.3974 49.9764 59.0966 49.9764C59.837 49.9764 60.5774 49.6885 61.1121 49.1126C62.2227 48.002 62.2227 46.151 61.1121 45.0405L57.1223 40.9683Z" fill="#6E1E7B"/>
</svg>
